<svg viewBox="0 0 36 36" fill="none" role="img" xmlns="http://www.w3.org/2000/svg" width="80" height="80">
<title>Margaret Brent</title>
<mask id="mask__beam" maskUnits="userSpaceOnUse" x="0" y="0" width="36" height="36">
<rect width="36" height="36" rx="72" fill="#FFFFFF"></rect>
</mask>
<g mask="url(#mask__beam)">
<rect width="36" height="36" fill="#405059"></rect>
<rect x="0" y="0" width="36" height="36" transform="translate(6 6) rotate(356 18 18) scale(1.2)" fill="#edd75a" rx="6"></rect>
<g transform="translate(4 1) rotate(6 18 18)">
<path d="M13,21 a1,0.75 0 0,0 10,0" fill="#000000"></path>
<rect x="13" y="14" width="1.5" height="2" rx="1" stroke="none" fill="#000000"></rect>
<rect x="21" y="14" width="1.5" height="2" rx="1" stroke="none" fill="#000000"></rect></g></g>
</svg>

<svg viewBox="0 0 80 80" fill="none" role="img" xmlns="http://www.w3.org/2000/svg" width="40" height="40"><title>Mary Roebling</title><mask id="mask__marble" maskUnits="userSpaceOnUse" x="0" y="0" width="80" height="80"><rect width="80" height="80" rx="160" fill="#FFFFFF"></rect></mask><g mask="url(#mask__marble)"><rect width="80" height="80" fill="#e8608c"></rect><path filter="url(#prefix__filter0_f)" d="M32.414 59.35L50.376 70.5H72.5v-71H33.728L26.5 13.381l19.057 27.08L32.414 59.35z" fill="#71cbc4" transform="translate(6 6) rotate(310 40 40) scale(1.3)"></path><path filter="url(#prefix__filter0_f)" d="M22.216 24L0 46.75l14.108 38.129L78 86l-3.081-59.276-22.378 4.005 12.972 20.186-23.35 27.395L22.215 24z" fill="#fff9f4" transform="translate(-1 -1) rotate(-105 40 40) scale(1.3)" style="mix-blend-mode: overlay;"></path></g><defs><filter id="prefix__filter0_f" filterUnits="userSpaceOnUse" color-interpolation-filters="sRGB"><feFlood flood-opacity="0" result="BackgroundImageFix"></feFlood><feBlend in="SourceGraphic" in2="BackgroundImageFix" result="shape"></feBlend><feGaussianBlur stdDeviation="7" result="effect1_foregroundBlur"></feGaussianBlur></filter></defs></svg>